<svg width="1440" height="651" viewBox="0 0 1440 651" fill="none" xmlns="http://www.w3.org/2000/svg">
<g clip-path="url(#clip0_1_579)">
<g clip-path="url(#clip1_1_579)">
<mask id="mask0_1_579" style="mask-type:luminance" maskUnits="userSpaceOnUse" x="-255" y="-77" width="1950" height="729">
<path d="M-254.038 -76.7546H1694.04V651.396H-254.038V-76.7546Z" fill="white"/>
</mask>
<g mask="url(#mask0_1_579)">
<path d="M-198.459 649.182C-198.281 529.243 -174.576 410.504 -128.687 299.691C-82.6267 188.462 -15.111 87.3936 70.0058 2.2551C155.115 -82.8763 256.161 -150.409 367.371 -196.487C478.576 -242.56 597.768 -266.275 718.139 -266.275C838.51 -266.275 957.702 -242.56 1068.91 -196.487C1180.12 -150.409 1281.16 -82.8761 1366.27 2.2551C1451.39 87.3934 1518.9 188.462 1564.96 299.691C1610.85 410.504 1634.56 529.243 1634.74 649.182H1508.94C1508.58 439.881 1425.29 239.251 1277.32 91.2281C1203.89 17.7804 1116.71 -40.484 1020.76 -80.2379C876.264 -140.108 717.253 -155.773 563.847 -125.251C410.442 -94.7297 269.536 -19.3928 158.957 91.2281C85.5215 164.681 27.2713 251.878 -12.4681 347.841C-52.035 443.389 -72.4856 545.766 -72.6629 649.182H-198.459Z" fill="#0A0A0A" stroke="url(#paint0_linear_1_579)" stroke-width="2.71698"/>
<path d="M25.6833 650.038C25.8593 559.433 43.7657 469.739 78.3927 386.012C113.179 301.896 164.184 225.449 228.498 161.033C292.778 96.6521 369.116 45.5706 453.149 10.7077C537.149 -24.1406 627.197 -42.079 718.139 -42.0806C809.073 -42.0806 899.117 -24.1431 983.129 10.7104C1067.16 45.5718 1143.5 96.6525 1207.78 161.033C1272.09 225.45 1323.1 301.897 1357.88 386.015C1392.51 469.74 1410.42 559.434 1410.59 650.038H1316.18C1316 571.851 1300.54 494.454 1270.66 422.203C1240.61 349.555 1196.56 283.533 1141.02 227.9C1085.5 172.296 1019.57 128.179 946.998 98.0695C874.451 67.9741 796.68 52.4829 718.139 52.4829C639.597 52.4829 561.826 67.9741 489.279 98.0695C416.705 128.18 350.775 172.297 295.259 227.9C239.715 283.533 195.664 349.555 165.621 422.203C135.74 494.454 120.276 571.851 120.101 650.038H25.6833Z" fill="#0A0A0A" stroke="url(#paint1_linear_1_579)" stroke-width="2.71698"/>
<path d="M212.182 650.038C212.358 583.931 225.44 518.494 250.696 457.401C276.11 395.915 313.378 340.033 360.375 292.939C407.338 245.881 463.115 208.54 524.518 183.051C585.892 157.578 651.689 144.466 718.139 144.465C784.58 144.465 850.374 157.577 911.759 183.051C973.162 208.54 1028.94 245.881 1075.9 292.939C1122.9 340.033 1160.16 395.915 1185.58 457.401C1210.83 518.494 1223.92 583.931 1224.09 650.038H1155.78C1155.61 592.919 1144.29 536.382 1122.47 483.595C1100.49 430.411 1068.25 382.074 1027.6 341.34C986.981 300.633 938.733 268.333 885.619 246.286C832.531 224.252 775.616 212.91 718.137 212.91C660.658 212.91 603.744 224.252 550.656 246.286C497.542 268.333 449.294 300.634 408.672 341.34C368.021 382.074 335.786 430.412 313.803 483.595C291.981 536.382 280.666 592.919 280.49 650.038H212.182Z" fill="#0A0A0A" stroke="url(#paint2_linear_1_579)" stroke-width="2.71698"/>
<path d="M378.152 650.038C378.329 605.726 387.118 561.872 404.031 520.929C421.105 479.583 446.148 442.001 477.732 410.324C509.284 378.679 546.765 353.567 588.031 336.422C629.269 319.293 673.484 310.475 718.138 310.475C762.792 310.475 807.006 319.293 848.244 336.422C889.512 353.566 926.993 378.679 958.546 410.324C990.129 442.002 1015.17 479.584 1032.25 520.929C1049.16 561.881 1057.95 605.731 1058.12 650.038H1013.05C1012.88 611.666 1005.25 573.694 990.606 538.229C975.795 502.365 954.073 469.767 926.678 442.289C899.308 414.841 866.796 393.057 831 378.185C795.228 363.327 756.874 355.678 718.139 355.678C679.404 355.678 641.05 363.327 605.278 378.185C569.482 393.056 536.969 414.839 509.6 442.289C482.204 469.767 460.481 502.365 445.669 538.229C431.022 573.694 423.399 611.667 423.224 650.038H378.152Z" fill="#0A0A0A" stroke="url(#paint3_linear_1_579)" stroke-width="2.71698"/>
<path d="M501.348 650.038C501.521 621.912 507.123 594.085 517.845 568.083C528.729 541.687 544.697 517.689 564.841 497.455C584.955 477.253 608.856 461.216 635.175 450.264C661.467 439.326 689.662 433.695 718.138 433.693C746.614 433.695 774.807 439.326 801.099 450.264C827.418 461.216 851.319 477.253 871.433 497.455C891.577 517.689 907.545 541.687 918.429 568.083C929.153 594.084 934.756 621.912 934.929 650.038H907.104C906.931 625.583 902.048 601.39 892.723 578.782C883.237 555.776 869.319 534.86 851.762 517.224C834.231 499.614 813.398 485.635 790.456 476.089C767.537 466.556 742.96 461.647 718.138 461.645C693.316 461.647 668.739 466.555 645.82 476.089C622.878 485.635 602.044 499.614 584.512 517.224C566.954 534.86 553.037 555.776 543.55 578.782C534.226 601.39 529.345 625.583 529.172 650.038H501.348Z" fill="#0A0A0A" stroke="url(#paint4_linear_1_579)" stroke-width="2.71698"/>
<path fill-rule="evenodd" clip-rule="evenodd" d="M-128.365 299.824C-174.191 410.485 -197.885 529.055 -198.109 648.829H-73.0142C-72.7908 545.486 -52.3319 443.188 -12.7924 347.708C26.964 251.702 85.239 164.465 158.706 90.9782C232.168 17.4978 319.385 -40.7924 415.377 -80.5638C511.362 -120.332 614.241 -140.801 718.138 -140.801C822.035 -140.801 924.914 -120.332 1020.9 -80.5638C1116.89 -40.793 1204.11 17.4973 1277.57 90.9782C1425.52 238.98 1508.84 439.556 1509.29 648.829H1634.38C1634.16 529.055 1610.46 410.485 1564.64 299.824C1518.6 188.639 1451.11 87.6099 1366.02 2.50516C1280.94 -82.5944 1179.94 -150.101 1068.77 -196.16C957.609 -242.217 838.463 -265.922 718.138 -265.922C597.813 -265.922 478.668 -242.217 367.506 -196.16C256.338 -150.102 155.331 -82.5946 70.2549 2.50516C-14.8302 87.6098 -82.3209 188.639 -128.365 299.824ZM1636.09 648.829C1635.87 528.83 1612.13 410.038 1566.22 299.17C1520.09 187.776 1452.48 86.5582 1367.23 1.2934C1282 -83.9635 1180.8 -151.596 1069.42 -197.742C958.056 -243.883 838.687 -267.632 718.138 -267.632C597.589 -267.632 478.221 -243.883 366.851 -197.742C255.475 -151.597 154.279 -83.9642 69.0431 1.2934C-16.199 86.5583 -83.8143 187.776 -129.943 299.17C-176.075 410.57 -199.819 529.965 -199.818 650.54H-71.3053C-71.3053 546.844 -50.8871 444.164 -11.2138 348.363C28.4577 252.563 86.6092 165.515 159.921 92.1873C233.224 18.8662 320.251 -39.2975 416.034 -78.9825C511.811 -118.665 614.468 -139.089 718.141 -139.089C821.813 -139.089 924.47 -118.665 1020.25 -78.9825C1116.03 -39.2974 1203.06 18.8663 1276.36 92.1873C1424.41 240.29 1507.58 441.128 1507.58 650.54H1636.1L1636.09 648.829Z" fill="#0A0A0A"/>
<mask id="mask1_1_579" style="mask-type:luminance" maskUnits="userSpaceOnUse" x="-200" y="-268" width="1837" height="919">
<path fill-rule="evenodd" clip-rule="evenodd" d="M-128.365 299.824C-174.191 410.485 -197.885 529.055 -198.109 648.829H-73.0142C-72.7908 545.486 -52.3319 443.188 -12.7924 347.708C26.964 251.702 85.239 164.465 158.706 90.9782C232.168 17.4978 319.385 -40.7924 415.377 -80.5638C511.362 -120.332 614.241 -140.801 718.138 -140.801C822.035 -140.801 924.914 -120.332 1020.9 -80.5638C1116.89 -40.793 1204.11 17.4973 1277.57 90.9782C1425.52 238.98 1508.84 439.556 1509.29 648.829H1634.38C1634.16 529.055 1610.46 410.485 1564.64 299.824C1518.6 188.639 1451.11 87.6099 1366.02 2.50516C1280.94 -82.5944 1179.94 -150.101 1068.77 -196.16C957.609 -242.217 838.463 -265.922 718.138 -265.922C597.813 -265.922 478.668 -242.217 367.506 -196.16C256.338 -150.102 155.331 -82.5946 70.2549 2.50516C-14.8302 87.6098 -82.3209 188.639 -128.365 299.824ZM1636.09 648.829C1635.87 528.83 1612.13 410.038 1566.22 299.17C1520.09 187.776 1452.48 86.5582 1367.23 1.2934C1282 -83.9635 1180.8 -151.596 1069.42 -197.742C958.056 -243.883 838.687 -267.632 718.138 -267.632C597.589 -267.632 478.221 -243.883 366.851 -197.742C255.475 -151.597 154.279 -83.9642 69.0431 1.2934C-16.199 86.5583 -83.8143 187.776 -129.943 299.17C-176.075 410.57 -199.819 529.965 -199.818 650.54H-71.3053C-71.3053 546.844 -50.8871 444.164 -11.2138 348.363C28.4577 252.563 86.6092 165.515 159.921 92.1873C233.224 18.8662 320.251 -39.2975 416.034 -78.9825C511.811 -118.665 614.468 -139.089 718.141 -139.089C821.813 -139.089 924.47 -118.665 1020.25 -78.9825C1116.03 -39.2974 1203.06 18.8663 1276.36 92.1873C1424.41 240.29 1507.58 441.128 1507.58 650.54H1636.1L1636.09 648.829Z" fill="white"/>
</mask>
<g mask="url(#mask1_1_579)">
<path d="M-198.107 648.829L-200.824 648.823L-200.829 651.546H-198.107V648.829ZM-73.017 648.829V651.546H-70.3027L-70.2973 648.834L-73.017 648.829ZM1509.29 648.829L1506.57 648.834L1506.58 651.546H1509.29V648.829ZM1634.38 648.829V651.546H1637.11L1637.1 648.823L1634.38 648.829ZM-199.819 650.541H-202.535V653.258H-199.819V650.541ZM-71.3053 650.541V653.258H-68.5883V650.541H-71.3053ZM1507.58 650.541H1504.86V653.258H1507.58V650.541ZM1636.09 650.541V653.258H1638.81V650.541H1636.09ZM-195.39 648.834C-195.167 529.416 -171.544 411.198 -125.854 300.865L-130.875 298.787C-176.836 409.775 -200.6 528.695 -200.824 648.823L-195.39 648.834ZM-73.017 646.112H-198.107V651.546H-73.017V646.112ZM-15.3029 346.668C-54.978 442.476 -75.5071 545.126 -75.7313 648.823L-70.2973 648.834C-70.0748 545.846 -49.686 443.898 -10.2819 348.746L-15.3029 346.668ZM156.785 89.0574C83.0655 162.796 24.59 250.332 -15.3029 346.668L-10.2819 348.746C29.3386 253.07 87.4143 166.133 160.63 92.8992L156.785 89.0574ZM414.336 -83.0742C318.015 -43.1665 230.499 15.3242 156.785 89.0574L160.63 92.8992C233.839 19.6704 320.756 -38.4196 416.417 -78.0532L414.336 -83.0742ZM718.138 -143.516C613.884 -143.517 510.651 -122.978 414.336 -83.0742L416.417 -78.0532C512.072 -117.684 614.598 -138.082 718.138 -138.082V-143.516ZM1021.94 -83.0742C925.625 -122.978 822.392 -143.517 718.138 -143.516V-138.082C821.677 -138.082 924.202 -117.686 1019.86 -78.0532L1021.94 -83.0742ZM1279.49 89.0574C1205.78 15.3248 1118.26 -43.1657 1021.94 -83.0742L1019.86 -78.0532C1115.52 -38.4196 1202.44 19.6704 1275.65 92.8992L1279.49 89.0574ZM1451.58 346.668C1411.69 250.332 1353.21 162.797 1279.49 89.0574L1275.65 92.8992C1348.86 166.133 1406.94 253.07 1446.56 348.746L1451.58 346.668ZM1512.01 648.823C1511.78 545.126 1491.25 442.476 1451.58 346.668L1446.56 348.746C1485.96 443.898 1506.35 545.846 1506.57 648.834L1512.01 648.823ZM1634.38 646.112H1509.29V651.546H1634.38V646.112ZM1562.13 300.865C1607.82 411.198 1631.44 529.416 1631.67 648.834L1637.1 648.823C1636.87 528.695 1613.11 409.775 1567.15 298.787L1562.13 300.865ZM1364.1 4.42343C1448.93 89.2778 1516.22 190.008 1562.13 300.865L1567.15 298.787C1520.97 187.27 1453.28 85.9413 1367.94 0.584351L1364.1 4.42343ZM1067.73 -193.647C1178.57 -147.725 1279.28 -80.418 1364.1 4.42886L1367.94 0.584351C1282.61 -84.7665 1181.31 -152.473 1069.81 -198.668L1067.73 -193.647ZM718.138 -263.205C838.106 -263.204 956.898 -239.567 1067.73 -193.647L1069.81 -198.668C958.319 -244.861 838.82 -268.636 718.138 -268.636V-263.205ZM368.547 -193.65C479.378 -239.569 598.171 -263.204 718.138 -263.205V-268.636C597.458 -268.636 477.96 -244.862 366.466 -198.668L368.547 -193.65ZM72.1758 4.42343C157 -80.4234 257.708 -147.727 368.547 -193.65L366.466 -198.671C254.968 -152.475 153.661 -84.7686 68.3312 0.581635L72.1758 4.42343ZM-125.854 300.862C-79.9475 190.005 -12.6571 89.2771 72.1758 4.42343L68.3312 0.578888C-17.0057 85.9385 -84.6958 187.269 -130.875 298.787L-125.854 300.865V300.862ZM1563.71 300.208C1609.48 410.748 1633.15 529.188 1633.38 648.832L1638.81 648.821C1638.59 528.467 1614.78 409.325 1568.73 298.129L1563.71 300.208ZM1365.31 3.21707C1450.3 88.2278 1517.72 189.146 1563.71 300.21L1568.73 298.132C1522.47 186.408 1454.65 84.8896 1369.15 -0.627441L1365.31 3.21707ZM1068.38 -195.231C1179.43 -149.222 1280.33 -81.7891 1365.31 3.21707L1369.15 -0.627441C1283.67 -86.1372 1182.17 -153.97 1070.47 -200.252L1068.38 -195.231ZM718.138 -264.916C838.329 -264.916 957.344 -241.238 1068.38 -195.231L1070.47 -200.252C958.766 -246.531 839.044 -270.35 718.138 -270.35V-264.916ZM367.892 -195.231C478.931 -241.237 597.946 -264.916 718.138 -264.916V-270.35C597.232 -270.35 477.511 -246.531 365.811 -200.252L367.892 -195.231ZM70.964 3.21436C155.948 -81.7914 256.845 -149.222 367.892 -195.231L365.811 -200.252C254.105 -153.969 152.61 -86.1354 67.1222 -0.624695L70.964 3.21436ZM-127.435 300.21C-81.4423 189.147 -14.0264 88.2263 70.964 3.21436L67.1222 -0.627441C-18.373 84.8899 -86.1887 186.408 -132.454 298.132L-127.435 300.21ZM-197.099 648.834C-196.877 529.191 -173.21 410.751 -127.435 300.21L-132.454 298.132C-178.502 409.328 -202.311 528.47 -202.535 648.823L-197.102 648.834H-197.099ZM-197.102 650.541V648.834L-202.535 648.823V650.541H-197.102ZM-13.7243 347.323C-53.5338 443.457 -74.0229 546.49 -74.0223 650.541H-68.5883C-68.5883 547.2 -48.2381 444.873 -8.70335 349.401L-13.7243 347.323ZM157.994 90.2692C84.434 163.849 26.0842 251.196 -13.7243 347.323L-8.70335 349.401C30.8316 253.932 88.7817 167.184 161.839 94.1083L157.994 90.2692ZM414.991 -81.4957C318.878 -41.6743 231.55 16.6898 157.994 90.2637L161.839 94.1055C234.89 21.0377 321.618 -36.9248 417.072 -76.472L414.991 -81.4957ZM718.138 -141.807C614.109 -141.807 511.098 -121.314 414.991 -81.4957L417.072 -76.472C512.52 -116.017 614.823 -136.371 718.138 -136.371V-141.804V-141.807ZM1021.29 -81.493C925.178 -121.311 822.167 -141.805 718.138 -141.804V-136.371C821.451 -136.371 923.754 -116.02 1019.2 -76.472L1021.29 -81.493ZM1278.28 90.2664C1204.72 16.6927 1117.4 -41.6715 1021.29 -81.493L1019.2 -76.472C1114.66 -36.924 1201.39 21.0395 1274.44 94.1083L1278.28 90.2664ZM1450 347.323C1410.19 251.195 1351.84 163.845 1278.28 90.2664L1274.44 94.1083C1347.49 167.184 1405.44 253.932 1444.98 349.401L1450 347.323ZM1510.3 650.541C1510.3 546.488 1489.81 443.455 1450 347.323L1444.98 349.401C1484.52 444.877 1504.86 547.203 1504.86 650.541H1510.3ZM1633.38 648.834V650.541H1638.81V648.823L1633.38 648.834ZM-71.3053 647.824H-199.819V653.258H-71.3053V647.824ZM1636.09 647.824H1507.58V653.258H1636.09V647.824Z" fill="url(#paint5_linear_1_579)"/>
</g>
<path fill-rule="evenodd" clip-rule="evenodd" d="M78.3332 385.991C43.6939 469.743 25.7855 559.467 25.6184 650.1H120.167C120.334 571.9 135.797 494.488 165.684 422.224C195.724 349.585 239.77 283.57 295.309 227.944C350.817 172.346 416.738 128.234 489.304 98.1264C561.843 68.0341 639.605 52.5443 718.139 52.5437C796.665 52.5437 874.425 68.0332 946.974 98.1292C1019.54 128.235 1085.46 172.347 1140.97 227.944C1196.51 283.571 1240.56 349.586 1270.6 422.224C1300.48 494.488 1315.94 571.9 1316.11 650.1H1410.66C1410.49 559.467 1392.58 469.743 1357.94 385.991C1323.16 301.865 1272.15 225.411 1207.83 160.989C1143.54 96.6027 1067.2 45.5164 983.156 10.6505C899.147 -24.2 809.09 -42.1393 718.139 -42.1404C627.188 -42.1392 537.131 -24.1999 453.122 10.6505C369.082 45.517 292.738 96.6031 228.452 160.989C164.131 225.411 113.122 301.865 78.3332 385.991ZM1411.95 650.1C1411.79 559.297 1393.84 469.404 1359.14 385.493C1324.28 301.212 1273.18 224.616 1208.74 160.074C1144.33 95.5664 1067.85 44.3842 983.65 9.45235C899.485 -25.4632 809.259 -43.4358 718.139 -43.4364C627.018 -43.4358 536.793 -25.4633 452.627 9.45235C368.431 44.3836 291.944 95.5659 227.539 160.074C163.098 224.615 111.993 301.212 77.1378 385.493C42.4347 469.404 24.4932 559.297 24.3251 650.1V651.396H121.457C121.457 572.924 136.892 495.219 166.877 422.721C196.852 350.239 240.803 284.366 296.222 228.859C351.611 173.383 417.389 129.366 489.798 99.3246C562.181 69.2971 639.775 53.8405 718.139 53.8397C796.496 53.8397 874.085 69.2938 946.479 99.3246C1018.89 129.366 1084.67 173.383 1140.06 228.859C1195.48 284.366 1239.43 350.239 1269.4 422.721C1299.39 495.231 1314.82 572.93 1314.82 651.396H1411.95V650.1Z" fill="#0A0A0A"/>
<mask id="mask2_1_579" style="mask-type:luminance" maskUnits="userSpaceOnUse" x="24" y="-44" width="1388" height="696">
<path fill-rule="evenodd" clip-rule="evenodd" d="M78.3332 385.991C43.6939 469.743 25.7855 559.467 25.6184 650.1H120.167C120.334 571.9 135.797 494.488 165.684 422.224C195.724 349.585 239.77 283.57 295.309 227.944C350.817 172.346 416.738 128.234 489.304 98.1264C561.843 68.0341 639.605 52.5443 718.139 52.5437C796.665 52.5437 874.425 68.0332 946.974 98.1292C1019.54 128.235 1085.46 172.347 1140.97 227.944C1196.51 283.571 1240.56 349.586 1270.6 422.224C1300.48 494.488 1315.94 571.9 1316.11 650.1H1410.66C1410.49 559.467 1392.58 469.743 1357.94 385.991C1323.16 301.865 1272.15 225.411 1207.83 160.989C1143.54 96.6027 1067.2 45.5164 983.156 10.6505C899.147 -24.2 809.09 -42.1393 718.139 -42.1404C627.188 -42.1392 537.131 -24.1999 453.122 10.6505C369.082 45.517 292.738 96.6031 228.452 160.989C164.131 225.411 113.122 301.865 78.3332 385.991ZM1411.95 650.1C1411.79 559.297 1393.84 469.404 1359.14 385.493C1324.28 301.212 1273.18 224.616 1208.74 160.074C1144.33 95.5664 1067.85 44.3842 983.65 9.45235C899.485 -25.4632 809.259 -43.4358 718.139 -43.4364C627.018 -43.4358 536.793 -25.4633 452.627 9.45235C368.431 44.3836 291.944 95.5659 227.539 160.074C163.098 224.615 111.993 301.212 77.1378 385.493C42.4347 469.404 24.4932 559.297 24.3251 650.1V651.396H121.457C121.457 572.924 136.892 495.219 166.877 422.721C196.852 350.239 240.803 284.366 296.222 228.859C351.611 173.383 417.389 129.366 489.798 99.3246C562.181 69.2971 639.775 53.8405 718.139 53.8397C796.496 53.8397 874.085 69.2938 946.479 99.3246C1018.89 129.366 1084.67 173.383 1140.06 228.859C1195.48 284.366 1239.43 350.239 1269.4 422.721C1299.39 495.231 1314.82 572.93 1314.82 651.396H1411.95V650.1Z" fill="white"/>
</mask>
<g mask="url(#mask2_1_579)">
<path d="M25.6183 650.1L22.9013 650.095L22.8959 652.817H25.6183V650.1ZM120.167 650.1V652.817H122.878L122.884 650.106L120.167 650.1ZM1316.11 650.1L1313.39 650.106L1313.4 652.817H1316.11V650.1ZM1410.66 650.1V652.817H1413.38L1413.38 650.095L1410.66 650.1ZM24.3251 651.399H21.6081V654.116H24.3251V651.399ZM121.457 651.399V654.116H124.174V651.399H121.457ZM1314.82 651.396H1312.1V654.113H1314.82V651.396ZM1411.95 651.396V654.113H1414.67V651.396H1411.95ZM28.3353 650.106C28.5019 559.827 46.3401 470.454 80.8437 387.028L75.8227 384.953C41.0485 469.033 23.07 559.107 22.9013 650.095L28.3353 650.106ZM120.167 647.383H25.6183V652.817H120.167V647.383ZM163.174 421.186C133.15 493.777 117.617 571.54 117.45 650.095L122.884 650.106C123.051 572.26 138.444 495.199 168.195 423.262L163.174 421.186ZM293.385 226.023C237.593 281.901 193.348 348.217 163.174 421.186L168.195 423.262C198.098 350.953 241.944 285.237 297.229 229.862L293.385 226.023ZM488.263 95.6187C415.367 125.862 349.146 170.174 293.385 226.023L297.229 229.862C352.487 174.519 418.108 130.607 490.344 100.637L488.263 95.6187ZM718.139 49.8267C639.248 49.8278 561.132 65.3888 488.263 95.6187L490.344 100.637C562.554 70.6811 639.962 55.2614 718.139 55.2606V49.8267ZM948.014 95.6187C875.145 65.3889 797.03 49.828 718.139 49.8267V55.2606C796.309 55.2606 873.713 70.6795 945.933 100.637L948.014 95.6187ZM1142.89 226.023C1087.13 170.174 1020.91 125.862 948.014 95.6187L945.933 100.637C1018.17 130.607 1083.79 174.518 1139.05 229.862L1142.89 226.023ZM1273.11 421.186C1242.93 348.217 1198.68 281.902 1142.89 226.023L1139.05 229.862C1194.33 285.237 1238.18 350.954 1268.08 423.265L1273.11 421.186ZM1318.83 650.095C1318.66 571.541 1303.13 493.778 1273.11 421.186L1268.08 423.265C1297.83 495.2 1313.23 572.261 1313.39 650.106L1318.83 650.095ZM1410.66 647.383H1316.11V652.817H1410.66V647.383ZM1355.43 387.028C1389.94 470.454 1407.78 559.827 1407.94 650.106L1413.38 650.095C1413.21 559.107 1395.23 469.033 1360.46 384.953L1355.43 387.028ZM1205.9 162.91C1269.97 227.079 1320.78 303.233 1355.43 387.028L1360.46 384.953C1325.53 300.499 1274.32 223.746 1209.75 159.071L1205.9 162.91ZM982.115 13.1583C1065.83 47.8878 1141.87 98.7747 1205.9 162.91L1209.75 159.071C1145.21 94.4313 1068.57 43.1439 984.197 8.14002L982.115 13.1583ZM718.139 -39.4262C808.726 -39.4262 898.424 -21.5539 982.115 13.161L984.197 8.14002C899.858 -26.8481 809.447 -44.8558 718.139 -44.8574V-39.4262ZM454.162 13.161C537.841 -21.5531 627.545 -39.4249 718.139 -39.4262V-44.8574C626.831 -44.8558 536.42 -26.8454 452.081 8.14274L454.162 13.161ZM230.375 162.91C294.408 98.7752 370.453 47.8884 454.162 13.1583L452.081 8.14274C367.712 43.145 291.068 94.4289 226.531 159.068L230.375 162.91ZM80.8437 387.028C115.497 303.233 166.307 227.079 230.375 162.91L226.531 159.068C161.957 223.742 110.748 300.498 75.8227 384.953L80.8437 387.028ZM1356.63 386.534C1391.2 470.116 1409.07 559.657 1409.24 650.106L1414.67 650.095C1414.5 558.937 1396.49 468.693 1361.65 384.456L1356.63 386.534ZM1206.82 161.994C1271.01 226.284 1321.91 302.581 1356.63 386.534L1361.65 384.456C1326.66 299.844 1275.36 222.949 1210.66 158.155L1206.82 161.994ZM982.61 11.9628C1066.48 46.7582 1142.66 97.74 1206.82 161.994L1210.66 158.155C1146 93.395 1069.22 42.015 984.691 6.94726L982.61 11.9628ZM718.139 -40.7195C808.894 -40.7195 898.761 -22.82 982.61 11.9628L984.691 6.94726C900.196 -28.1068 809.617 -46.1541 718.139 -46.1561V-40.7195ZM453.668 11.9655C537.503 -22.8134 627.375 -40.7185 718.139 -40.7195V-46.1561C626.669 -46.1561 536.093 -28.1127 451.587 6.94455L453.668 11.9655ZM229.46 161.997C293.614 97.7428 369.801 46.7609 453.668 11.9655L451.587 6.94455C367.06 42.013 290.273 93.3956 225.615 158.155L229.46 161.997ZM79.6482 386.534C114.366 302.581 165.271 226.287 229.46 161.997L225.615 158.155C160.923 222.949 109.618 299.847 74.6272 384.458L79.6482 386.534ZM27.042 650.106C27.2085 559.657 45.0799 470.116 79.6482 386.534L74.6272 384.458C39.7894 468.697 21.7777 558.937 21.6081 650.095L27.042 650.106ZM27.042 651.396V650.106L21.6081 650.095V651.396H27.042ZM164.366 421.681C134.243 494.52 118.74 572.573 118.74 651.396H124.174C124.173 573.287 139.536 495.94 169.387 423.759L164.366 421.681ZM294.301 226.939C238.63 282.697 194.479 348.869 164.366 421.681L169.387 423.759C199.227 351.606 242.978 286.035 298.145 230.78L294.301 226.939ZM488.758 96.8168C416.019 126.994 349.941 171.21 294.301 226.939L298.145 230.78C353.282 175.557 418.762 131.739 490.842 101.835L488.758 96.8168ZM718.139 51.1254C639.418 51.1261 561.47 66.6528 488.758 96.8168L490.842 101.835C562.893 71.9443 640.133 56.5579 718.139 56.5566V51.1254ZM947.52 96.8141C874.807 66.6501 796.86 51.1261 718.139 51.1254V56.5566C796.138 56.5566 873.376 71.9429 945.439 101.838L947.52 96.8141ZM1141.98 226.941C1086.34 171.214 1020.26 126.992 947.52 96.8141L945.439 101.838C1017.52 131.742 1083 175.556 1138.13 230.78L1141.98 226.941ZM1271.91 421.684C1241.8 348.872 1197.65 282.701 1141.98 226.941L1138.13 230.78C1193.3 286.034 1237.05 351.607 1266.89 423.759L1271.91 421.684ZM1317.54 651.396C1317.54 572.568 1302.03 494.51 1271.91 421.684L1266.89 423.759C1296.74 495.94 1312.1 573.287 1312.1 651.396H1317.54ZM1409.24 650.106V651.396H1414.67V650.095L1409.24 650.106ZM121.457 648.679H24.3251V654.113H121.457V648.679ZM1411.95 648.679H1314.82V654.113H1411.95V648.679Z" fill="url(#paint6_linear_1_579)"/>
</g>
<path fill-rule="evenodd" clip-rule="evenodd" d="M250.313 457.243C224.987 518.515 211.893 584.149 211.77 650.448H280.903C281.025 593.244 292.33 536.616 314.184 483.75C336.148 430.617 368.353 382.325 408.965 341.628C449.55 300.96 497.752 268.692 550.816 246.667C603.854 224.652 660.714 213.32 718.139 213.318C775.564 213.32 832.424 224.653 885.461 246.667C938.525 268.692 986.726 300.96 1027.31 341.628C1067.92 382.324 1100.13 430.616 1122.09 483.75C1143.94 536.616 1155.25 593.244 1155.37 650.448H1224.51C1224.38 584.149 1211.29 518.514 1185.96 457.243C1160.53 395.709 1123.23 339.782 1076.2 292.651C1029.19 245.554 973.371 208.182 911.917 182.673C850.493 157.179 784.643 144.056 718.139 144.054C651.641 144.054 585.795 157.177 524.358 182.673C462.905 208.182 407.082 245.554 360.081 292.651C313.048 339.783 275.75 395.709 250.313 457.243ZM1225.45 650.448C1225.33 584.025 1212.21 518.267 1186.84 456.882C1161.35 395.232 1123.99 339.2 1076.86 291.98C1029.78 244.794 973.847 207.353 912.278 181.796C850.74 156.255 784.767 143.107 718.139 143.106C651.51 143.107 585.536 156.255 523.997 181.796C462.428 207.352 406.501 244.794 359.413 291.98C312.291 339.199 274.923 395.232 249.441 456.882C224.066 518.268 210.947 584.025 210.824 650.448V651.396H281.849C281.847 593.998 293.131 537.159 315.058 484.114C336.974 431.095 369.109 382.908 409.634 342.299C450.13 301.718 498.228 269.519 551.178 247.541C604.101 225.575 660.838 214.267 718.139 214.267C775.44 214.267 832.177 225.575 885.1 247.541C938.049 269.519 986.146 301.719 1026.64 342.299C1067.17 382.907 1099.3 431.095 1121.22 484.114C1143.15 537.16 1154.43 593.998 1154.43 651.396H1225.45L1225.45 650.448Z" fill="#0A0A0A"/>
<mask id="mask3_1_579" style="mask-type:luminance" maskUnits="userSpaceOnUse" x="210" y="143" width="1016" height="509">
<path fill-rule="evenodd" clip-rule="evenodd" d="M250.313 457.243C224.987 518.515 211.893 584.149 211.77 650.448H280.903C281.025 593.244 292.33 536.616 314.184 483.75C336.148 430.617 368.353 382.325 408.965 341.628C449.55 300.96 497.752 268.692 550.816 246.667C603.854 224.652 660.714 213.32 718.139 213.318C775.564 213.32 832.424 224.653 885.461 246.667C938.525 268.692 986.726 300.96 1027.31 341.628C1067.92 382.324 1100.13 430.616 1122.09 483.75C1143.94 536.616 1155.25 593.244 1155.37 650.448H1224.51C1224.38 584.149 1211.29 518.514 1185.96 457.243C1160.53 395.709 1123.23 339.782 1076.2 292.651C1029.19 245.554 973.371 208.182 911.917 182.673C850.493 157.179 784.643 144.056 718.139 144.054C651.641 144.054 585.795 157.177 524.358 182.673C462.905 208.182 407.082 245.554 360.081 292.651C313.048 339.783 275.75 395.709 250.313 457.243ZM1225.45 650.448C1225.33 584.025 1212.21 518.267 1186.84 456.882C1161.35 395.232 1123.99 339.2 1076.86 291.98C1029.78 244.794 973.847 207.353 912.278 181.796C850.74 156.255 784.767 143.107 718.139 143.106C651.51 143.107 585.536 156.255 523.997 181.796C462.428 207.352 406.501 244.794 359.413 291.98C312.291 339.199 274.923 395.232 249.441 456.882C224.066 518.268 210.947 584.025 210.824 650.448V651.396H281.849C281.847 593.998 293.131 537.159 315.058 484.114C336.974 431.095 369.109 382.908 409.634 342.299C450.13 301.718 498.228 269.519 551.178 247.541C604.101 225.575 660.838 214.267 718.139 214.267C775.44 214.267 832.177 225.575 885.1 247.541C938.049 269.519 986.146 301.719 1026.64 342.299C1067.17 382.907 1099.3 431.095 1121.22 484.114C1143.15 537.16 1154.43 593.998 1154.43 651.396H1225.45L1225.45 650.448Z" fill="white"/>
</mask>
<g mask="url(#mask3_1_579)">
<path d="M211.77 650.448L209.053 650.443L209.047 653.165H211.77V650.448ZM280.903 650.448V653.165H283.615L283.62 650.454L280.903 650.448ZM1155.37 650.448L1152.66 650.454L1152.66 653.165H1155.37V650.448ZM1224.51 650.448V653.165H1227.23L1227.22 650.443L1224.51 650.448ZM210.824 651.394H208.107V654.111H210.824V651.394ZM281.849 651.394V654.111H284.566V651.394H281.849ZM1154.43 651.396H1151.71V654.113H1154.43V651.396ZM1225.45 651.396V654.113H1228.17V651.396H1225.45ZM214.487 650.454C214.608 584.508 227.632 519.224 252.826 458.281L247.802 456.206C222.34 517.804 209.177 583.789 209.053 650.443L214.487 650.454ZM280.903 647.731H211.77V653.165H280.903V647.731ZM311.673 482.712C289.685 535.905 278.309 592.884 278.186 650.443L283.62 650.454C283.741 593.604 294.976 537.326 316.694 484.788L311.673 482.712ZM407.042 339.71C366.178 380.659 333.773 429.25 311.673 482.712L316.694 484.788C338.521 431.984 370.528 383.992 410.889 343.549L407.042 339.71ZM549.773 244.156C496.379 266.319 447.878 298.789 407.042 339.71L410.889 343.549C451.22 303.133 499.123 271.063 551.857 249.174L549.773 244.156ZM718.139 210.601C660.356 210.603 603.142 222.006 549.773 244.156L551.857 249.174C604.565 227.298 661.071 216.037 718.139 216.035V210.601ZM886.502 244.156C833.134 222.006 775.921 210.603 718.139 210.601V216.035C775.198 216.035 831.7 227.297 884.421 249.174L886.502 244.156ZM1029.23 339.71C988.397 298.789 939.896 266.319 886.502 244.156L884.421 249.174C937.154 271.065 985.056 303.134 1025.39 343.549L1029.23 339.71ZM1124.6 482.712C1102.5 429.249 1070.1 380.657 1029.23 339.71L1025.39 343.549C1065.75 383.992 1097.75 431.984 1119.58 484.788L1124.6 482.712ZM1158.09 650.443C1157.97 592.884 1146.59 535.905 1124.6 482.712L1119.58 484.788C1141.3 537.327 1152.53 593.604 1152.66 650.454L1158.09 650.443ZM1224.51 647.731H1155.37V653.165H1224.51V647.731ZM1183.45 458.281C1208.64 519.225 1221.67 584.509 1221.79 650.454L1227.22 650.443C1227.1 583.789 1213.94 517.803 1188.47 456.206L1183.45 458.281ZM1074.27 294.57C1121.05 341.449 1158.15 397.076 1183.45 458.281L1188.47 456.206C1162.9 394.341 1125.4 338.114 1078.12 290.731L1074.27 294.57ZM910.876 185.184C972 210.555 1027.52 247.726 1074.27 294.57L1078.12 290.731C1030.86 243.38 974.743 205.808 912.96 180.163L910.876 185.184ZM718.139 146.771C784.278 146.771 849.771 159.826 910.876 185.184L912.96 180.163C851.206 154.533 785.001 141.339 718.139 141.337V146.771ZM525.402 185.181C586.495 159.825 651.992 146.772 718.139 146.771V141.337C651.277 141.338 585.072 154.532 523.318 180.163L525.402 185.181ZM362.005 294.57C408.753 247.724 464.277 210.551 525.402 185.181L523.318 180.163C461.534 205.808 405.411 243.38 358.158 290.731L362.005 294.57ZM252.826 458.281C278.125 397.076 315.223 341.448 362.005 294.57L358.158 290.731C310.873 338.115 273.375 394.342 247.802 456.206L252.826 458.281ZM1184.32 457.92C1209.57 518.977 1222.61 584.384 1222.73 650.454L1228.17 650.443C1228.05 583.665 1214.86 517.557 1189.35 455.844L1184.32 457.92ZM1074.94 293.899C1121.81 340.866 1158.98 396.599 1184.32 457.92L1189.35 455.844C1163.73 393.865 1126.16 337.533 1078.79 290.062L1074.94 293.899ZM911.237 184.306C972.476 209.726 1028.1 246.966 1074.94 293.899L1078.79 290.062C1031.45 242.624 975.22 204.982 913.321 179.288L911.237 184.306ZM718.139 145.823C784.403 145.823 850.018 158.9 911.237 184.306L913.321 179.288C851.453 153.61 785.125 140.391 718.139 140.389V145.823ZM525.038 184.304C586.247 158.899 651.867 145.825 718.139 145.823V140.389C651.153 140.391 584.825 153.609 522.956 179.288L525.038 184.304ZM361.337 293.899C408.173 246.966 463.8 209.723 525.038 184.304L522.956 179.288C461.057 204.981 404.83 242.623 357.49 290.062L361.337 293.899ZM251.951 457.92C277.299 396.599 314.467 340.866 361.337 293.899L357.49 290.062C310.115 337.533 272.548 393.864 246.93 455.844L251.951 457.92ZM213.541 650.454C213.662 584.385 226.711 518.978 251.951 457.92L246.93 455.844C221.419 517.557 208.231 583.665 208.107 650.443L213.541 650.454ZM213.541 651.396V650.454L208.107 650.443V651.396H213.541ZM312.548 483.074C290.484 536.448 279.13 593.642 279.132 651.396H284.566C284.566 594.348 295.779 537.856 317.569 485.152L312.548 483.074ZM407.71 340.378C366.934 381.24 334.599 429.725 312.548 483.074L317.569 485.152C339.347 432.462 371.284 384.571 411.557 344.214L407.71 340.378ZM550.134 245.031C496.857 267.148 448.46 299.547 407.71 340.378L411.557 344.214C451.801 303.887 499.599 271.89 552.218 250.049L550.134 245.031ZM718.139 211.547C660.48 211.548 603.388 222.928 550.134 245.031L552.218 250.049C604.812 228.221 661.195 216.984 718.139 216.984V211.547ZM886.141 245.031C832.888 222.928 775.797 211.548 718.139 211.547V216.984C775.076 216.984 831.456 228.216 884.057 250.047L886.141 245.031ZM1028.56 340.378C987.816 299.547 939.419 267.147 886.141 245.031L884.057 250.047C936.677 271.888 984.475 303.89 1024.72 344.217L1028.56 340.378ZM1123.73 483.077C1101.68 429.727 1069.34 381.24 1028.56 340.378L1024.72 344.217C1064.99 384.573 1096.93 432.462 1118.71 485.152L1123.73 483.077ZM1157.15 651.396C1157.15 593.636 1145.79 536.441 1123.73 483.077L1118.71 485.152C1140.5 537.868 1151.71 594.354 1151.71 651.396H1157.15ZM1222.73 650.454L1222.74 651.396H1228.17L1228.17 650.443L1222.73 650.454ZM281.849 648.679H210.824V654.113H281.849V648.679ZM1225.45 648.679H1154.43V654.113H1225.45V648.679Z" fill="url(#paint7_linear_1_579)"/>
</g>
<path fill-rule="evenodd" clip-rule="evenodd" d="M403.363 520.655C386.32 561.917 377.51 606.114 377.429 650.758H423.944C424.026 612.238 431.633 574.105 446.338 538.503C461.114 502.728 482.783 470.208 510.11 442.797C537.413 415.415 569.846 393.685 605.555 378.85C641.239 364.027 679.499 356.396 718.139 356.396C756.779 356.396 795.039 364.027 830.722 378.85C866.43 393.685 898.863 415.415 926.165 442.797C953.494 470.207 975.163 502.727 989.937 538.503C1004.64 574.105 1012.25 612.238 1012.33 650.758H1058.85C1058.77 606.114 1049.96 561.918 1032.91 520.655C1015.8 479.222 990.708 441.56 959.056 409.816C927.437 378.104 889.876 352.938 848.521 335.756C807.195 318.591 762.887 309.754 718.138 309.754C673.388 309.754 629.08 318.591 587.754 335.756C546.4 352.939 508.839 378.105 477.219 409.816C445.569 441.561 420.474 479.222 403.363 520.655ZM1059.48 650.758C1059.4 606.03 1050.58 561.751 1033.5 520.41C1016.36 478.9 991.217 441.168 959.507 409.365C927.829 377.593 890.198 352.38 848.766 335.167C807.362 317.969 762.971 309.117 718.138 309.117C673.304 309.117 628.913 317.969 587.509 335.167C546.078 352.38 508.448 377.594 476.77 409.365C445.059 441.167 419.917 478.899 402.776 520.41C385.701 561.75 376.874 606.03 376.791 650.758V651.396H424.58C424.58 612.739 432.174 574.462 446.927 538.747C461.669 503.048 483.291 470.599 510.562 443.248C537.805 415.927 570.167 394.244 605.797 379.44C641.404 364.649 679.581 357.036 718.138 357.036C756.694 357.036 794.871 364.649 830.478 379.44C866.109 394.243 898.472 415.926 925.716 443.248C952.986 470.599 974.608 503.049 989.351 538.747C1004.11 574.471 1011.7 612.745 1011.7 651.396H1059.48V650.758Z" fill="#0A0A0A"/>
<mask id="mask4_1_579" style="mask-type:luminance" maskUnits="userSpaceOnUse" x="376" y="309" width="684" height="343">
<path fill-rule="evenodd" clip-rule="evenodd" d="M403.363 520.655C386.32 561.917 377.51 606.114 377.429 650.758H423.944C424.026 612.238 431.633 574.105 446.338 538.503C461.114 502.728 482.783 470.208 510.11 442.797C537.413 415.415 569.846 393.685 605.555 378.85C641.239 364.027 679.499 356.396 718.139 356.396C756.779 356.396 795.039 364.027 830.722 378.85C866.43 393.685 898.863 415.415 926.165 442.797C953.494 470.207 975.163 502.727 989.937 538.503C1004.64 574.105 1012.25 612.238 1012.33 650.758H1058.85C1058.77 606.114 1049.96 561.918 1032.91 520.655C1015.8 479.222 990.708 441.56 959.056 409.816C927.437 378.104 889.876 352.938 848.521 335.756C807.195 318.591 762.887 309.754 718.138 309.754C673.388 309.754 629.08 318.591 587.754 335.756C546.4 352.939 508.839 378.105 477.219 409.816C445.569 441.561 420.474 479.222 403.363 520.655ZM1059.48 650.758C1059.4 606.03 1050.58 561.751 1033.5 520.41C1016.36 478.9 991.217 441.168 959.507 409.365C927.829 377.593 890.198 352.38 848.766 335.167C807.362 317.969 762.971 309.117 718.138 309.117C673.304 309.117 628.913 317.969 587.509 335.167C546.078 352.38 508.448 377.594 476.77 409.365C445.059 441.167 419.917 478.899 402.776 520.41C385.701 561.75 376.874 606.03 376.791 650.758V651.396H424.58C424.58 612.739 432.174 574.462 446.927 538.747C461.669 503.048 483.291 470.599 510.562 443.248C537.805 415.927 570.167 394.244 605.797 379.44C641.404 364.649 679.581 357.036 718.138 357.036C756.694 357.036 794.871 364.649 830.478 379.44C866.109 394.243 898.472 415.926 925.716 443.248C952.986 470.599 974.608 503.049 989.351 538.747C1004.11 574.471 1011.7 612.745 1011.7 651.396H1059.48V650.758Z" fill="white"/>
</mask>
<g mask="url(#mask4_1_579)">
<path d="M377.429 650.758L374.712 650.752L374.707 653.475H377.429V650.758ZM423.944 650.758V653.475H426.656L426.661 650.763L423.944 650.758ZM1012.33 650.758L1009.61 650.763L1009.62 653.475H1012.33V650.758ZM1058.85 650.758V653.475H1061.57L1061.57 650.752L1058.85 650.758ZM376.791 651.396H374.074V654.113H376.791V651.396ZM424.58 651.396V654.113H427.297V651.396H424.58ZM1011.7 651.396H1008.98V654.113H1011.7V651.396ZM1059.48 651.396V654.113H1062.2V651.396H1059.48ZM380.146 650.763C380.227 606.473 388.966 562.626 405.873 521.69L400.852 519.617C383.674 561.207 374.794 605.754 374.712 650.752L380.146 650.763ZM423.944 648.041H377.429V653.475H423.944V648.041ZM443.827 537.465C428.987 573.395 421.31 611.878 421.227 650.752L426.661 650.763C426.742 612.598 434.278 574.816 448.848 539.541L443.827 537.465ZM508.187 440.879C480.607 468.542 458.739 501.361 443.827 537.465L448.848 539.541C463.487 504.095 484.957 471.875 512.034 444.718L508.187 440.879ZM604.512 376.34C568.474 391.313 535.742 413.245 508.187 440.879L512.034 444.718C539.083 417.588 571.217 396.057 606.596 381.358L604.512 376.34ZM718.139 353.678C679.141 353.678 640.527 361.38 604.512 376.34L606.596 381.358C641.95 366.672 679.856 359.112 718.139 359.111V353.678ZM831.763 376.34C795.749 361.38 757.136 353.678 718.139 353.678V359.111C756.416 359.111 794.315 366.67 829.679 381.358L831.763 376.34ZM928.088 440.879C900.534 413.243 867.802 391.312 831.763 376.34L829.679 381.358C865.058 396.056 897.192 417.587 924.241 444.718L928.088 440.879ZM992.451 537.465C977.539 501.36 955.669 468.541 928.088 440.879L924.241 444.718C951.319 471.875 972.789 504.094 987.427 539.541L992.451 537.465ZM1015.05 650.752C1014.97 611.878 1007.29 573.395 992.451 537.465L987.427 539.541C1002 574.816 1009.53 612.598 1009.61 650.763L1015.05 650.752ZM1058.85 648.041H1012.33V653.475H1058.85V648.041ZM1030.4 521.69C1047.31 562.626 1056.05 606.473 1056.13 650.763L1061.57 650.752C1061.48 605.755 1052.6 561.207 1035.43 519.617L1030.4 521.69ZM957.133 411.734C988.531 443.226 1013.43 480.587 1030.4 521.69L1035.43 519.617C1018.18 477.854 992.883 439.893 960.98 407.898L957.133 411.734ZM847.481 338.267C888.505 355.311 925.766 380.276 957.133 411.734L960.98 407.898C929.11 375.933 891.249 350.566 849.565 333.249L847.481 338.267ZM718.139 312.469C762.531 312.47 806.485 321.237 847.481 338.267L849.565 333.249C807.909 315.944 763.246 307.036 718.139 307.035V312.469ZM588.797 338.267C629.792 321.237 673.747 312.47 718.139 312.469V307.035C673.037 307.035 628.378 315.941 586.713 333.249L588.797 338.267ZM479.142 411.734C510.51 380.276 547.772 355.311 588.797 338.267L586.713 333.249C545.028 350.566 507.166 375.932 475.295 407.898L479.142 411.734ZM405.873 521.69C422.849 480.588 447.745 443.226 479.142 411.734L475.295 407.898C443.393 439.894 418.099 477.855 400.852 519.617L405.873 521.69ZM1030.99 521.448C1047.93 562.461 1056.69 606.39 1056.77 650.763L1062.2 650.752C1062.12 605.671 1053.22 561.04 1036.01 519.373L1030.99 521.448ZM957.584 411.283C989.041 442.835 1013.98 480.268 1030.99 521.448L1036.01 519.373C1018.73 477.533 993.392 439.502 961.431 407.447L957.584 411.283ZM847.723 337.677C888.825 354.752 926.158 379.765 957.584 411.283L961.431 407.447C929.501 375.423 891.571 350.009 849.809 332.659L847.723 337.677ZM718.139 311.831C762.608 311.831 806.639 320.612 847.723 337.677L849.809 332.659C808.076 315.322 763.33 306.398 718.139 306.397V311.831ZM588.552 337.677C629.625 320.615 673.663 311.831 718.139 311.831V306.397C672.948 306.397 628.202 315.322 586.468 332.659L588.552 337.677ZM478.694 411.283C510.119 379.765 547.451 354.752 588.552 337.677L586.468 332.659C544.707 350.009 506.776 375.423 474.847 407.447L478.694 411.283ZM405.287 521.446C422.293 480.265 447.236 442.833 478.694 411.283L474.847 407.447C442.885 439.502 417.542 477.533 400.263 519.373L405.287 521.446ZM379.508 650.763C379.591 606.389 388.348 562.459 405.287 521.446L400.263 519.373C383.054 561.04 374.158 605.671 374.074 650.752L379.508 650.763ZM379.508 651.396V650.763L374.074 650.752V651.396H379.508ZM444.414 537.71C429.523 573.762 421.861 612.389 421.863 651.396H427.297C427.297 613.095 434.82 575.169 449.438 539.785L444.414 537.71ZM508.638 441.33C481.116 468.934 459.294 501.682 444.414 537.71L449.438 539.785C464.044 504.416 485.466 472.267 512.485 445.169L508.638 441.33ZM604.757 376.929C568.796 391.871 536.134 413.755 508.638 441.33L512.485 445.169C539.476 418.098 571.539 396.615 606.84 381.948L604.757 376.929ZM718.139 354.316C679.225 354.317 640.694 362.002 604.757 376.929L606.84 381.948C642.117 367.294 679.94 359.751 718.139 359.75V354.316ZM831.521 376.929C795.584 362.002 757.053 354.317 718.139 354.316V359.75C756.331 359.75 794.149 367.292 829.435 381.948L831.521 376.929ZM927.64 441.33C900.144 413.755 867.481 391.871 831.521 376.929L829.435 381.948C864.737 396.615 896.801 418.098 923.793 445.169L927.64 441.33ZM991.861 537.71C976.981 501.682 955.16 468.934 927.64 441.33L923.793 445.169C950.811 472.267 972.234 504.416 986.84 539.785L991.861 537.71ZM1014.41 651.396C1014.41 612.383 1006.75 573.753 991.861 537.71L986.84 539.785C1001.46 575.18 1008.98 613.102 1008.98 651.396H1014.41ZM1056.77 650.763V651.396H1062.2V650.752L1056.77 650.763ZM424.58 648.679H376.791V654.113H424.58V648.679ZM1059.48 648.679H1011.7V654.113H1059.48V648.679Z" fill="url(#paint8_linear_1_579)"/>
</g>
<path fill-rule="evenodd" clip-rule="evenodd" d="M516.965 567.722C506.073 594.134 500.443 622.419 500.392 650.989H530.118C530.171 626.338 535.032 601.935 544.431 579.146C553.87 556.255 567.719 535.442 585.189 517.895C602.631 500.373 623.359 486.465 646.185 476.966C668.988 467.482 693.441 462.599 718.138 462.599C742.834 462.599 767.287 467.482 790.09 476.966C812.917 486.464 833.646 500.373 851.089 517.895C868.558 535.443 882.407 556.255 891.846 579.146C901.243 601.935 906.104 626.339 906.157 650.989H935.886C935.834 622.419 930.203 594.133 919.31 567.722C908.379 541.21 892.341 517.108 872.107 496.787C851.906 476.495 827.901 460.387 801.466 449.386C775.058 438.402 746.739 432.747 718.138 432.747C689.536 432.747 661.217 438.402 634.809 449.386C608.374 460.388 584.369 476.495 564.167 496.787C543.935 517.108 527.897 541.211 516.965 567.722ZM936.291 650.989C936.24 622.365 930.6 594.026 919.687 567.564C908.734 541.004 892.665 516.857 872.395 496.496C852.157 476.166 828.106 460.03 801.621 449.011C775.165 438.004 746.793 432.336 718.139 432.334C689.483 432.336 661.111 438.004 634.654 449.011C608.169 460.03 584.118 476.166 563.88 496.496C543.61 516.856 527.542 541.003 516.59 567.564C505.678 594.026 500.037 622.365 499.984 650.989V651.396H530.526C530.525 626.662 535.377 602.168 544.806 579.301C554.225 556.459 568.044 535.692 585.477 518.183C602.882 500.699 623.566 486.821 646.343 477.344C669.096 467.879 693.496 463.006 718.139 463.004C742.782 463.006 767.182 467.879 789.935 477.344C812.712 486.822 833.395 500.7 850.801 518.183C868.233 535.692 882.051 556.459 891.469 579.301C900.898 602.168 905.75 626.662 905.749 651.396H936.291V650.989Z" fill="#0A0A0A"/>
<mask id="mask5_1_579" style="mask-type:luminance" maskUnits="userSpaceOnUse" x="499" y="432" width="438" height="220">
<path fill-rule="evenodd" clip-rule="evenodd" d="M516.965 567.722C506.073 594.134 500.443 622.419 500.392 650.989H530.118C530.171 626.338 535.032 601.935 544.431 579.146C553.87 556.255 567.719 535.442 585.189 517.895C602.631 500.373 623.359 486.465 646.185 476.966C668.988 467.482 693.441 462.599 718.138 462.599C742.834 462.599 767.287 467.482 790.09 476.966C812.917 486.464 833.646 500.373 851.089 517.895C868.558 535.443 882.407 556.255 891.846 579.146C901.243 601.935 906.104 626.339 906.157 650.989H935.886C935.834 622.419 930.203 594.133 919.31 567.722C908.379 541.21 892.341 517.108 872.107 496.787C851.906 476.495 827.901 460.387 801.466 449.386C775.058 438.402 746.739 432.747 718.138 432.747C689.536 432.747 661.217 438.402 634.809 449.386C608.374 460.388 584.369 476.495 564.167 496.787C543.935 517.108 527.897 541.211 516.965 567.722ZM936.291 650.989C936.24 622.365 930.6 594.026 919.687 567.564C908.734 541.004 892.665 516.857 872.395 496.496C852.157 476.166 828.106 460.03 801.621 449.011C775.165 438.004 746.793 432.336 718.139 432.334C689.483 432.336 661.111 438.004 634.654 449.011C608.169 460.03 584.118 476.166 563.88 496.496C543.61 516.856 527.542 541.003 516.59 567.564C505.678 594.026 500.037 622.365 499.984 650.989V651.396H530.526C530.525 626.662 535.377 602.168 544.806 579.301C554.225 556.459 568.044 535.692 585.477 518.183C602.882 500.699 623.566 486.821 646.343 477.344C669.096 467.879 693.496 463.006 718.139 463.004C742.782 463.006 767.182 467.879 789.935 477.344C812.712 486.822 833.395 500.7 850.801 518.183C868.233 535.692 882.051 556.459 891.469 579.301C900.898 602.168 905.75 626.662 905.749 651.396H936.291V650.989Z" fill="white"/>
</mask>
<g mask="url(#mask5_1_579)">
<path d="M500.392 650.989L497.675 650.983L497.67 653.706H500.392V650.989ZM530.119 650.989V653.706H532.83L532.835 650.994L530.119 650.989ZM906.157 650.989L903.44 650.994L903.445 653.706H906.157V650.989ZM935.886 650.989V653.706H938.608L938.603 650.983L935.886 650.989ZM499.984 651.396H497.267V654.113H499.984V651.396ZM530.526 651.396V654.113H533.243V651.396H530.526ZM905.749 651.396H903.032V654.113H905.749V651.396ZM936.291 651.396V654.113H939.008V651.396H936.291ZM503.109 650.992C503.16 622.776 508.72 594.841 519.479 568.757L514.455 566.686C503.428 593.425 497.728 622.06 497.675 650.983L503.109 650.992ZM530.119 648.272H500.392V653.706H530.119V648.272ZM541.921 578.108C532.387 601.223 527.454 625.977 527.402 650.981L532.835 650.994C532.887 626.697 537.679 602.644 546.942 580.182L541.921 578.108ZM583.263 515.977C565.542 533.777 551.495 554.888 541.921 578.108L546.942 580.182C556.246 557.619 569.896 537.106 587.115 519.81L583.263 515.977ZM645.142 474.458C621.986 484.094 600.958 498.203 583.263 515.977L587.115 519.81C604.306 502.542 624.735 488.836 647.231 479.477L645.142 474.458ZM718.139 459.879C693.084 459.88 668.275 464.834 645.142 474.458L647.231 479.477C669.702 470.127 693.801 465.314 718.139 465.313V459.879ZM791.133 474.458C768.001 464.835 743.194 459.88 718.139 459.879V465.313C742.478 465.314 766.576 470.127 789.047 479.477L791.133 474.458ZM853.013 515.977C835.318 498.202 814.29 484.093 791.133 474.458L789.047 479.477C811.543 488.837 831.972 502.543 849.163 519.81L853.013 515.977ZM894.357 578.108C884.782 554.888 870.734 533.777 853.013 515.977L849.163 519.81C866.381 537.106 880.03 557.619 889.333 580.182L894.357 578.108ZM908.874 650.981C908.82 625.977 903.889 601.224 894.357 578.108L889.333 580.182C898.598 602.643 903.389 626.697 903.44 650.994L908.874 650.981ZM935.886 648.272H906.157V653.706H935.886V648.272ZM916.799 568.757C927.556 594.841 933.117 622.776 933.169 650.992L938.603 650.983C938.55 622.06 932.85 593.425 921.823 566.686L916.799 568.757ZM870.184 498.702C890.164 518.772 906.003 542.575 916.799 568.757L921.823 566.686C910.755 539.846 894.518 515.443 874.034 494.868L870.184 498.702ZM800.423 451.897C826.529 462.758 850.235 478.664 870.184 498.702L874.034 494.868C853.58 474.324 829.275 458.016 802.509 446.878L800.423 451.897ZM718.139 435.462C746.382 435.463 774.346 441.048 800.423 451.897L802.509 446.878C775.772 435.755 747.098 430.028 718.139 430.028V435.462ZM635.853 451.897C661.93 441.048 689.895 435.462 718.139 435.462V430.028C689.179 430.028 660.505 435.755 633.766 446.878L635.853 451.897ZM566.094 498.702C586.043 478.665 609.748 462.759 635.853 451.897L633.766 446.878C607 458.016 582.695 474.324 562.241 494.868L566.094 498.702ZM519.479 568.757C530.273 542.574 546.112 518.771 566.094 498.702L562.241 494.868C541.759 515.444 525.522 539.846 514.455 566.686L519.479 568.757ZM917.174 568.602C927.952 594.736 933.523 622.723 933.574 650.992L939.008 650.983C938.957 622.006 933.247 593.317 922.198 566.529L917.174 568.602ZM870.472 498.414C890.49 518.522 906.358 542.37 917.174 568.602L922.198 566.529C911.11 539.64 894.842 515.193 874.322 494.58L870.472 498.414ZM800.578 451.519C826.733 462.401 850.485 478.337 870.472 498.414L874.322 494.58C853.83 473.998 829.479 457.659 802.664 446.501L800.578 451.519ZM718.139 435.051C746.435 435.053 774.452 440.65 800.578 451.519L802.664 446.501C775.877 435.357 747.152 429.619 718.139 429.617V435.051ZM635.698 451.519C661.824 440.65 689.842 435.053 718.139 435.051V429.617C689.126 429.619 660.399 435.357 633.611 446.501L635.698 451.519ZM565.806 498.414C585.792 478.337 609.543 462.401 635.698 451.519L633.611 446.501C606.797 457.659 582.447 473.998 561.956 494.58L565.806 498.414ZM519.101 568.602C529.919 542.371 545.788 518.523 565.806 498.414L561.956 494.58C541.434 515.192 525.166 539.639 514.077 566.529L519.101 568.602ZM502.701 650.992C502.753 622.723 508.323 594.736 519.101 568.602L514.077 566.529C503.031 593.318 497.321 622.006 497.267 650.983L502.701 650.992ZM502.701 651.396V650.992L497.267 650.983V651.396H502.701ZM542.296 578.266C532.73 601.46 527.808 626.307 527.809 651.396H533.243C533.241 627.017 538.024 602.874 547.32 580.336L542.296 578.266ZM583.551 516.265C565.867 534.027 551.85 555.094 542.296 578.266L547.32 580.336C556.602 557.824 570.221 537.358 587.401 520.101L583.551 516.265ZM645.3 474.836C622.192 484.45 601.208 498.528 583.551 516.265L587.401 520.101C604.554 502.87 624.939 489.193 647.386 479.852L645.3 474.836ZM718.139 460.287C693.143 460.287 668.391 465.232 645.3 474.836L647.386 479.852C669.808 470.524 693.854 465.721 718.139 465.721V460.287ZM790.979 474.836C767.895 465.233 743.141 460.288 718.139 460.287V465.721C742.424 465.721 766.47 470.524 788.892 479.852L790.979 474.836ZM852.725 516.265C835.068 498.528 814.085 484.45 790.979 474.836L788.892 479.852C811.339 489.192 831.722 502.87 848.875 520.101L852.725 516.265ZM893.982 578.266C884.428 555.094 870.409 534.027 852.725 516.265L848.875 520.101C866.056 537.357 879.676 557.824 888.958 580.336L893.982 578.266ZM908.466 651.396C908.468 626.307 903.547 601.461 893.982 578.266L888.958 580.336C898.252 602.875 903.034 627.017 903.032 651.396H908.466ZM933.574 650.992V651.396H939.008V650.983L933.574 650.992ZM530.526 648.679H499.984V654.113H530.526V648.679ZM936.291 648.679H905.749V654.113H936.291V648.679Z" fill="url(#paint9_linear_1_579)"/>
</g>
<g filter="url(#filter0_f_1_579)">
<path d="M718.995 1122.08C916.834 1122.08 1077.22 961.778 1077.22 764.037C1077.22 566.296 916.834 405.996 718.995 405.996C521.155 405.996 360.774 566.296 360.774 764.037C360.774 961.778 521.155 1122.08 718.995 1122.08Z" fill="#3C97F5"/>
</g>
<path d="M-283.925 -95.7736H1723.92V651.396H-283.925V-95.7736Z" fill="url(#paint10_radial_1_579)"/>
<path d="M-251.544 -203.931H1694.04V651.396H-251.544V-203.931Z" fill="url(#paint11_linear_1_579)"/>
</g>
</g>
</g>
<defs>
<filter id="filter0_f_1_579" x="-625.218" y="-579.996" width="2688.43" height="2688.07" filterUnits="userSpaceOnUse" color-interpolation-filters="sRGB">
<feFlood flood-opacity="0" result="BackgroundImageFix"/>
<feBlend mode="normal" in="SourceGraphic" in2="BackgroundImageFix" result="shape"/>
<feGaussianBlur stdDeviation="492.996" result="effect1_foregroundBlur_1_579"/>
</filter>
<linearGradient id="paint0_linear_1_579" x1="718.139" y1="-267.634" x2="718.139" y2="650.54" gradientUnits="userSpaceOnUse">
<stop offset="0.304" stop-color="#73BFFA"/>
<stop offset="1" stop-color="#73BFFA" stop-opacity="0"/>
</linearGradient>
<linearGradient id="paint1_linear_1_579" x1="718.139" y1="-43.4391" x2="718.139" y2="651.396" gradientUnits="userSpaceOnUse">
<stop offset="0.304" stop-color="#73BFFA"/>
<stop offset="1" stop-color="#73BFFA" stop-opacity="0"/>
</linearGradient>
<linearGradient id="paint2_linear_1_579" x1="718.139" y1="143.106" x2="718.139" y2="651.396" gradientUnits="userSpaceOnUse">
<stop offset="0.304" stop-color="#73BFFA"/>
<stop offset="1" stop-color="#73BFFA" stop-opacity="0"/>
</linearGradient>
<linearGradient id="paint3_linear_1_579" x1="718.139" y1="309.114" x2="718.139" y2="651.396" gradientUnits="userSpaceOnUse">
<stop offset="0.304" stop-color="#73BFFA"/>
<stop offset="1" stop-color="#73BFFA" stop-opacity="0"/>
</linearGradient>
<linearGradient id="paint4_linear_1_579" x1="718.138" y1="432.334" x2="718.138" y2="651.396" gradientUnits="userSpaceOnUse">
<stop offset="0.304" stop-color="#73BFFA"/>
<stop offset="1" stop-color="#0A0A0A" stop-opacity="0"/>
</linearGradient>
<linearGradient id="paint5_linear_1_579" x1="718.138" y1="-267.633" x2="718.138" y2="650.54" gradientUnits="userSpaceOnUse">
<stop offset="0.304" stop-color="#73BFFA"/>
<stop offset="1" stop-color="#73BFFA" stop-opacity="0"/>
</linearGradient>
<linearGradient id="paint6_linear_1_579" x1="718.139" y1="-43.4391" x2="718.139" y2="651.396" gradientUnits="userSpaceOnUse">
<stop offset="0.304" stop-color="#73BFFA"/>
<stop offset="1" stop-color="#3C97F5" stop-opacity="0"/>
</linearGradient>
<linearGradient id="paint7_linear_1_579" x1="718.139" y1="143.106" x2="718.139" y2="651.396" gradientUnits="userSpaceOnUse">
<stop offset="0.304" stop-color="#73BFFA"/>
<stop offset="1" stop-color="#73BFFA" stop-opacity="0"/>
</linearGradient>
<linearGradient id="paint8_linear_1_579" x1="718.139" y1="309.114" x2="718.139" y2="651.396" gradientUnits="userSpaceOnUse">
<stop offset="0.304" stop-color="#73BFFA"/>
<stop offset="1" stop-color="#73BFFA" stop-opacity="0"/>
</linearGradient>
<linearGradient id="paint9_linear_1_579" x1="718.139" y1="432.334" x2="718.139" y2="651.396" gradientUnits="userSpaceOnUse">
<stop offset="0.304" stop-color="#73BFFA"/>
<stop offset="1" stop-color="#73BFFA" stop-opacity="0"/>
</linearGradient>
<radialGradient id="paint10_radial_1_579" cx="0" cy="0" r="1" gradientUnits="userSpaceOnUse" gradientTransform="translate(720.557 241.003) rotate(90) scale(561.41 1508.66)">
<stop offset="0.093" stop-color="#0A0A0A" stop-opacity="0"/>
<stop offset="0.716" stop-color="#0A0A0A"/>
</radialGradient>
<linearGradient id="paint11_linear_1_579" x1="721.247" y1="-219.969" x2="721.247" y2="737.793" gradientUnits="userSpaceOnUse">
<stop offset="0.407" stop-color="#0A0A0A" stop-opacity="0"/>
<stop offset="1" stop-color="#0A0A0A"/>
</linearGradient>
<clipPath id="clip0_1_579">
<rect width="1948.08" height="728.151" fill="white" transform="translate(-254.038 -76.7546)"/>
</clipPath>
<clipPath id="clip1_1_579">
<rect width="1948.08" height="728.151" fill="white" transform="translate(-254.038 -76.7546)"/>
</clipPath>
</defs>
</svg>
